<?xml version="1.0" encoding="utf-8"?>
<!-- Generator: Adobe Illustrator 24.1.3, SVG Export Plug-In . SVG Version: 6.00 Build 0)  -->
<svg version="1.1" xmlns="http://www.w3.org/2000/svg" xmlns:xlink="http://www.w3.org/1999/xlink" x="0px" y="0px"
	 viewBox="0 0 1280 882" style="enable-background:new 0 0 1280 882;" xml:space="preserve">
<style type="text/css">
	.st0{fill:#6D5231;}
	.st1{fill:#5E442C;}
	.st2{fill:#916A40;}
	.st3{fill:#C79158;}
	.st4{fill:#231A12;}
	.st5{fill:#A8A8A8;}
	.st6{fill:#FFE650;}
	.st7{fill:#020202;stroke:#000000;stroke-miterlimit:10;}
	.st8{fill:#E8C58B;stroke:#000000;stroke-width:0.25;stroke-miterlimit:10;}
	.st9{fill:#47B8A8;stroke:#000000;stroke-width:0.25;stroke-miterlimit:10;}
	.st10{fill:#009985;}
	.st11{fill:#FFFFFF;}
	.st12{fill:none;stroke:#000000;stroke-miterlimit:10;}
</style>
<g id="Capa_1">
	<polygon class="st0" points="641.18,-0.51 640.89,-0.51 1.25,-0.51 1.25,883.44 640.89,883.44 641.18,883.44 1280.82,883.44 
		1280.82,-0.51 	"/>
	<rect x="0.05" y="616.44" class="st1" width="1280.5" height="267"/>
	<polygon class="st2" points="488.55,350.34 522.62,316.28 522.62,283.92 522.62,251.56 536.25,197.06 545.77,136.6 529.44,113.6 
		517.51,125.53 529.44,137.45 526.03,168.1 517.51,203.87 517.51,232.83 517.51,244.75 517.51,273.7 502.18,316.28 	"/>
	<path class="st2" d="M61.74,507.89l20.45-22.14l15.33-39.17v-47.69l3.41-17.03l6.82-25.55l6.82-27.25v-17.03v-20.44l3.41-18.73
		l5.11-15.33l8.52-13.63v-35.77l-6.82-30.66V136.6l6.82-34.06l3-26.44L106.04,31H58.33v31.67l9.37,39.01l-1.7,25.55l5.11,20.44
		c0,0-1.7,11.92,0,17.03s6.82,23.84,6.82,23.84s0-3.41,0,8.52s0,11.92,0,11.92v8.52l-1.7,11.92v10.22v10.22v20.44v8.52l1.7,20.44
		v17.03l-5.11,10.22v13.63l-1.7,10.22l-3.41,20.44c0,0,1.7,1.7,1.7,5.11c0,3.41,0,18.73,0,18.73l8.52,22.14l-1.7,42.58
		C76.22,459.35,69.4,503.63,61.74,507.89z"/>
	<path class="st3" d="M1200.47,505.33h-37.48l-6.82-11.92h-61.34h-40.89h-34.08h-11.93c0,0-17.04,0-39.19,0c-22.15,0,0,6.81,0,6.81
		s-18.74,0-27.26,0c-8.52,0-6.82,6.81-6.82,6.81h-20.45h-18.74l-27.26-6.81h-8.52c0,0-39.19,6.81-46,6.81c-6.82,0-17.04,0-17.04,0
		h-11.93l-28.96-6.81l-20.45,8.52l-49.41-1.7l-28.97-6.81l-16.75-3.26v-1.85l-78.38,10.22h-37.48l-6.82-11.92h-61.34h-40.89H381.2
		h-11.93c0,0-17.04,0-39.19,0s0,6.81,0,6.81s-18.74,0-27.26,0c-8.52,0-6.82,6.81-6.82,6.81h-20.45h-18.74l-27.26-6.81h-8.52
		c0,0-39.19,6.81-46,6.81c-6.82,0-17.04,0-17.04,0h-11.93l-28.97-6.81l-20.45,8.52l-49.41-1.7l-28.97-6.81L1.25,512.14l-1.7,207.79
		l5.11,5.11l44.3-3.41l25.56-11.92l22.15-18.73c0,0,8.52-8.52,23.85-6.81c15.33,1.7,5.11,23.84,5.11,23.84l-5.11,15.33l13.63-1.7
		l27.26-3.41h13.63l13.63-5.11l18.74-3.41c0,0,10.22-1.7,28.97,3.41s15.33,15.33,15.33,15.33s-11.93,20.44-8.52,25.55
		c3.41,5.11,17.04-10.22,17.04-10.22l15.33-10.22l11.93-13.63l15.33-3.41l20.45-1.7l15.33-3.41l18.74-5.11l15.33-1.7
		c0,0,1.7,5.11,0,11.92s6.82,6.81,6.82,6.81l15.33-3.41l18.74-1.7l20.45-5.11h18.74h17.04h20.45l11.93-3.41h17.04h18.74
		c0,0,5.11-10.22,13.63-17.03c8.52-6.81,18.74-3.41,18.74-3.41l27.26,20.44h34.08h6.42l0.11,9.83l5.11,5.5l44.3-3.41l25.56-11.92
		l22.15-18.73c0,0,8.52-8.52,23.85-6.81c15.33,1.7,5.11,23.84,5.11,23.84l-5.11,15.33l13.63-1.7l27.26-3.41h13.63l13.63-5.11
		l18.74-3.41c0,0,10.22-1.7,28.97,3.41c18.74,5.11,15.33,15.33,15.33,15.33s-11.93,20.44-8.52,25.55
		c3.41,5.11,17.04-10.22,17.04-10.22l15.33-10.22l11.93-13.63l15.33-3.41l20.45-1.7l15.33-3.41l18.74-5.11l15.33-1.7
		c0,0,1.7,5.11,0,11.92c-1.7,6.81,6.82,6.81,6.82,6.81l15.33-3.41l18.74-1.7l20.45-5.11h18.74h17.04h20.45l11.93-3.41h17.04h18.74
		c0,0,5.11-10.22,13.63-17.03c8.52-6.81,18.74-3.41,18.74-3.41l27.26,20.44h34.08h8.52v-214.6L1200.47,505.33z"/>
	<polygon class="st2" points="1127.2,350.34 1161.28,316.28 1161.28,283.92 1161.28,251.56 1174.91,197.06 1184.42,136.6 
		1168.09,113.6 1156.17,125.53 1168.09,137.45 1164.68,168.1 1156.17,203.87 1156.17,232.83 1156.17,244.75 1156.17,273.7 
		1140.83,316.28 	"/>
	<path class="st1" d="M1278.7,8.08L640.05,31.85L6.36,8.01L0.4,245.6l39.19-30.66l39.19-17.03l92.01-20.44l61.34-25.55l13.63,54.5
		l6.82,32.36l-5.11,30.66l5.11,37.47l11.93,30.66l-6.82,32.36l18.74-69.83l-5.11-52.8l-3.41-11.92l-1.7-25.55v-32.36l1.7-30.66
		c0,0,17.04-10.22,28.97-10.22c11.93,0,42.6,0,42.6,0h8.52l35.78-17.03l25.56-32.36l20.45-27.25l15.33-17.03l40.89,17.03
		l10.22,22.14l5.11,27.25l13.63,15.33l52.82,20.44l32.37,23.84l30.67,8.52l8.26,16.5l-0.02,3.93l0.99-1.99l0.99,1.99l-0.02-3.93
		l8.26-16.5l30.67-8.52l32.37-23.84l52.82-20.44l13.63-15.33l5.11-27.25l10.22-22.14l40.89-17.03l15.33,17.03l20.45,27.25
		l25.56,32.36l35.78,17.03h8.52c0,0,30.67,0,42.6,0c11.93,0,28.97,10.22,28.97,10.22l1.7,30.66v32.36l-1.7,25.55l-3.41,11.92
		l-5.11,52.8l18.74,69.83l-6.82-32.36l11.93-30.66l5.11-37.47l-5.11-30.66l6.82-32.36l13.63-54.5l61.34,25.55l92.01,20.44
		l39.19,17.03l39.19,30.66L1278.7,8.08z"/>
	<path class="st2" d="M700.39,507.89l20.45-22.14l15.33-39.17v-47.69l3.41-17.03l6.82-25.55l6.82-27.25v-17.03v-20.44l3.41-18.73
		l5.11-15.33l8.52-13.63v-35.77l-6.82-30.66V136.6l6.82-34.06l3-26.44L744.69,31h-47.71v31.67l9.37,39.01l-1.7,25.55l5.11,20.44
		c0,0-1.7,11.92,0,17.03c1.7,5.11,6.82,23.84,6.82,23.84s0-3.41,0,8.52s0,11.92,0,11.92v8.52l-1.7,11.92v10.22v10.22v20.44v8.52
		l1.7,20.44v17.03l-5.11,10.22v13.63l-1.7,10.22l-3.41,20.44c0,0,1.7,1.7,1.7,5.11c0,3.41,0,18.73,0,18.73l8.52,22.14l-1.7,42.58
		C714.87,459.35,708.06,503.63,700.39,507.89z"/>
	<path class="st4" d="M641.84,1.19l0.05-1.7L1.25,1.19L2.1,136.6c0,0,34.08-64.72,51.12-71.53c0,0,23.85-13.63,39.19,0
		c15.33,13.63,18.74,32.36,18.74,32.36l3.41-28.95V54.84c0,0,8.52,15.33,15.33,18.73c6.82,3.41,39.19,22.14,39.19,22.14l10.22,5.11
		c0,0-22.15-30.66-23.85-45.99l32.37,22.14l20.45,5.11l13.63-1.7l20.45-3.41l17.04-3.41h13.63l11.93-6.81l13.63-6.81l11.93-5.11
		l27.26-5.11l20.45,3.41l15.33,1.7l13.63-1.7l15.33-3.41l15.33-3.41l8.52-6.81L436.58,31l18.74-5.11c0,0,8.52,0,10.22,0
		c1.7,0,23.85,0,23.85,0L508.14,31l13.63,6.81v8.52v20.44l20.45,3.41l6.82-22.14l10.22-10.22l3.41-1.7L578,39.52
		c0,0,10.22,8.52,11.93,10.22s10.22,6.81,10.22,6.81h17.04l21.96-2.44l0.52,82.49c0,0,34.13-64.72,51.2-71.53
		c0,0,23.89-13.63,39.26,0c15.36,13.63,18.77,32.36,18.77,32.36l3.41-28.95V54.84c0,0,8.53,15.33,15.36,18.73
		c6.83,3.41,39.26,22.14,39.26,22.14l10.24,5.11c0,0-22.19-30.66-23.89-45.99l32.43,22.14l20.48,5.11l13.65-1.7l20.48-3.41
		l17.07-3.41h13.65l11.95-6.81l13.65-6.81l11.95-5.11l27.31-5.11l20.48,3.41l15.36,1.7l13.65-1.7l15.36-3.41l15.36-3.41l8.53-6.81
		l10.24-8.52l18.77-5.11c0,0,8.53,0,10.24,0c1.71,0,23.89,0,23.89,0l18.77,5.11l13.65,6.81v8.52v20.44l20.48,3.41l6.83-22.14
		l10.24-10.22l3.41-1.7l15.36,3.41c0,0,10.24,8.52,11.95,10.22c1.71,1.7,10.24,6.81,10.24,6.81h17.07l23.04-2.55l1.71-54.5
		L641.84,1.19z"/>
	<g>
		<g>
			<path class="st5" d="M275.67,772.4c-5.49-3.8-8.28-11.12-6.72-17.61c1.9-7.92,9.5-15.57,5.94-22.89
				c6.6,2.07,10.75,8.41,14.35,14.31c3.05,4.99,6.22,10.52,5.35,16.31c-0.87,5.78-8.13,10.6-12.71,6.96"/>
		</g>
		<g>
			<path class="st5" d="M921.67,771.4c-5.49-3.8-8.28-11.12-6.72-17.61c1.9-7.92,9.5-15.57,5.94-22.89
				c6.6,2.07,10.75,8.41,14.35,14.31c3.05,4.99,6.22,10.52,5.35,16.31c-0.87,5.78-8.13,10.6-12.71,6.96"/>
		</g>
		<g>
			<path class="st5" d="M73.11,771.87c-3.86-5.03-12.42-5.04-16.68-0.34s-3.73,12.74,0.75,17.23c4.41,4.42,12.05,6.16,13.68,12.18
				c0.65,2.38,0.13,4.9,0.31,7.36c0.46,6.31,6.46,11.86,12.76,11.31s11.32-7.65,9.25-13.63c-1.09-3.17-3.69-5.54-5.95-8.02
				c-5.92-6.51-9.96-14.71-11.51-23.37"/>
		</g>
		<g>
			<path class="st5" d="M127.96,794.02c8.7-7.73,22.39-9.21,32.54-3.51c1.87,1.05,3.65,2.33,5.72,2.92
				c7.68,2.19,17.31-5.42,23.12,0.06c-6.91,6.48-17.26,7.2-26.73,7.57c-11.24,0.44-23.26,0.68-32.79-5.29"/>
		</g>
		<g>
			<path class="st5" d="M115.57,852.49c-3.92-2.98-6.05-8.15-5.37-13.03c0.68-4.88,4.15-9.26,8.73-11.06c2.55-1,5.44-1.27,7.61-2.94
				c1.39-1.07,2.38-2.64,3.92-3.49c1.73-0.96,3.86-0.81,5.79-0.41c5.93,1.25,11.34,4.85,14.78,9.84c0.97,1.41,1.81,3.01,1.8,4.71
				c-0.01,2.7-2.14,4.95-4.47,6.32c-9.82,5.82-23.72,1.07-32.89,7.87"/>
		</g>
		<g>
			<path class="st5" d="M105.67,773.4c-5.49-3.8-8.28-11.12-6.72-17.61c1.9-7.92,9.5-15.57,5.94-22.89
				c6.6,2.07,10.75,8.41,14.35,14.31c3.05,4.99,6.22,10.52,5.35,16.31c-0.87,5.78-8.13,10.6-12.71,6.96"/>
		</g>
		<g>
			<path class="st5" d="M42.29,743.87c-6.99-2.22-15.37,1.69-18.16,8.47c-2.98,7.22,0.09,15.38,3.14,22.57
				c0.68,1.62,1.48,3.35,3.04,4.16c0.99,0.51,2.15,0.56,3.26,0.51c4.76-0.24,9.79-2.71,11.41-7.19c2.96-8.17-6.56-17.09-3.44-25.19"
				/>
		</g>
		<g>
			<path class="st5" d="M35.66,807.53c-3.06,7.05-3.37,15.57,0.5,22.22c3.87,6.64,12.35,10.69,19.64,8.26
				c2.46-0.82,4.83-2.47,5.65-4.93c1.38-4.14-1.99-8.22-5.1-11.29c-5.15-5.09-10.3-10.18-15.45-15.27"/>
		</g>
		<g>
			<path class="st5" d="M27.46,870.15c4.45-9.49,15.78-13.33,26.07-15.33s21.55-3.52,28.9-10.99c0.81-0.83,1.87-1.8,2.96-1.42
				c0.8,0.28,1.19,1.19,1.35,2.02c1.15,5.87-4.18,11.01-9.57,13.61c-5.39,2.6-11.61,4.16-15.49,8.71c-1.33,1.56-2.35,3.44-4,4.67
				c-1.98,1.47-4.57,1.76-7.03,1.93c-7.42,0.52-14.88,0.37-22.28-0.42"/>
		</g>
		<g>
			<path class="st5" d="M101.58,866.47c7.75,1.48,15.66-2.12,23.52-1.38c6.69,0.63,12.91,4.36,19.62,4.25
				c4.39-0.07,8.55-1.78,12.73-3.11c1.52-0.48,3.29-0.89,4.64-0.03c1.91,1.22,1.61,4.33-0.01,5.92c-1.61,1.59-3.99,2.07-6.22,2.47
				c-10.64,1.93-21.29,3.86-31.93,5.79c-5.51,1-11.2,1.99-16.65,0.72s-10.63-5.46-11.25-11.02"/>
		</g>
		<g>
			<path class="st5" d="M243.11,770.87c-3.86-5.03-12.42-5.04-16.68-0.34c-4.26,4.7-3.73,12.74,0.75,17.23
				c4.41,4.42,12.05,6.16,13.68,12.18c0.65,2.38,0.13,4.9,0.31,7.36c0.46,6.31,6.46,11.86,12.76,11.31
				c6.3-0.55,11.32-7.65,9.25-13.63c-1.09-3.17-3.69-5.54-5.95-8.02c-5.92-6.51-9.96-14.71-11.51-23.37"/>
		</g>
		<g>
			<path class="st5" d="M314.96,786.02c8.7-7.73,22.39-9.21,32.54-3.51c1.87,1.05,3.65,2.33,5.72,2.92
				c7.68,2.19,17.31-5.42,23.12,0.06c-6.91,6.48-17.26,7.2-26.73,7.57c-11.24,0.44-23.26,0.68-32.79-5.29"/>
		</g>
		<g>
			<path class="st5" d="M285.57,851.49c-3.92-2.98-6.05-8.15-5.37-13.03c0.68-4.88,4.15-9.26,8.73-11.06c2.55-1,5.44-1.27,7.61-2.94
				c1.39-1.07,2.38-2.64,3.92-3.49c1.73-0.96,3.86-0.81,5.79-0.41c5.93,1.25,11.34,4.85,14.78,9.84c0.97,1.41,1.81,3.01,1.8,4.71
				c-0.01,2.7-2.14,4.95-4.47,6.32c-9.82,5.82-23.72,1.07-32.89,7.87"/>
		</g>
		<g>
			<path class="st5" d="M212.29,742.87c-6.99-2.22-15.37,1.69-18.16,8.47c-2.98,7.22,0.09,15.38,3.14,22.57
				c0.68,1.62,1.48,3.35,3.04,4.16c0.99,0.51,2.15,0.56,3.26,0.51c4.76-0.24,9.79-2.71,11.41-7.19c2.96-8.17-6.56-17.09-3.44-25.19"
				/>
		</g>
		<g>
			<path class="st5" d="M205.66,806.53c-3.06,7.05-3.37,15.57,0.5,22.22c3.87,6.64,12.35,10.69,19.64,8.26
				c2.46-0.82,4.83-2.47,5.65-4.93c1.38-4.14-1.99-8.22-5.1-11.29c-5.15-5.09-10.3-10.18-15.45-15.27"/>
		</g>
		<g>
			<path class="st5" d="M197.46,869.15c4.45-9.49,15.78-13.33,26.07-15.33s21.55-3.52,28.9-10.99c0.81-0.83,1.87-1.8,2.96-1.42
				c0.8,0.28,1.19,1.19,1.35,2.02c1.15,5.87-4.18,11.01-9.57,13.61c-5.39,2.6-11.61,4.16-15.49,8.71c-1.33,1.56-2.35,3.44-4,4.67
				c-1.98,1.47-4.57,1.76-7.03,1.93c-7.42,0.52-14.88,0.37-22.28-0.42"/>
		</g>
		<g>
			<path class="st5" d="M271.58,865.47c7.75,1.48,15.66-2.12,23.52-1.38c6.69,0.63,12.91,4.36,19.62,4.25
				c4.39-0.07,8.55-1.78,12.73-3.11c1.52-0.48,3.29-0.89,4.64-0.03c1.91,1.22,1.61,4.33-0.01,5.92s-3.99,2.07-6.22,2.47
				c-10.64,1.93-21.29,3.86-31.93,5.79c-5.51,1-11.2,1.99-16.65,0.72s-10.63-5.46-11.25-11.02"/>
		</g>
		<g>
			<path class="st5" d="M389.11,765.87c-3.86-5.03-12.42-5.04-16.68-0.34c-4.26,4.7-3.73,12.74,0.75,17.23
				c4.41,4.42,12.05,6.16,13.68,12.18c0.65,2.38,0.13,4.9,0.31,7.36c0.46,6.31,6.46,11.86,12.76,11.31
				c6.3-0.55,11.32-7.65,9.25-13.63c-1.09-3.17-3.69-5.54-5.95-8.02c-5.92-6.51-9.96-14.71-11.51-23.37"/>
		</g>
		<g>
			<path class="st5" d="M443.96,788.02c8.7-7.73,22.39-9.21,32.54-3.51c1.87,1.05,3.65,2.33,5.72,2.92
				c7.68,2.19,17.31-5.42,23.12,0.06c-6.91,6.48-17.26,7.2-26.73,7.57c-11.24,0.44-23.26,0.68-32.79-5.29"/>
		</g>
		<g>
			<path class="st5" d="M431.57,846.49c-3.92-2.98-6.05-8.15-5.37-13.03c0.68-4.88,4.15-9.26,8.73-11.06c2.55-1,5.44-1.27,7.61-2.94
				c1.39-1.07,2.38-2.64,3.92-3.49c1.73-0.96,3.86-0.81,5.79-0.41c5.93,1.25,11.34,4.85,14.78,9.84c0.97,1.41,1.81,3.01,1.8,4.71
				c-0.01,2.7-2.14,4.95-4.47,6.32c-9.82,5.82-23.72,1.07-32.89,7.87"/>
		</g>
		<g>
			<path class="st5" d="M421.67,767.4c-5.49-3.8-8.28-11.12-6.72-17.61c1.9-7.92,9.5-15.57,5.94-22.89
				c6.6,2.07,10.75,8.41,14.35,14.31c3.05,4.99,6.22,10.52,5.35,16.31c-0.87,5.78-8.13,10.6-12.71,6.96"/>
		</g>
		<g>
			<path class="st5" d="M358.29,737.87c-6.99-2.22-15.37,1.69-18.16,8.47c-2.98,7.22,0.09,15.38,3.14,22.57
				c0.68,1.62,1.48,3.35,3.04,4.16c0.99,0.51,2.15,0.56,3.26,0.51c4.76-0.24,9.79-2.71,11.41-7.19c2.96-8.17-6.56-17.09-3.44-25.19"
				/>
		</g>
		<g>
			<path class="st5" d="M351.66,801.53c-3.06,7.05-3.37,15.57,0.5,22.22c3.87,6.64,12.35,10.69,19.64,8.26
				c2.46-0.82,4.83-2.47,5.65-4.93c1.38-4.14-1.99-8.22-5.1-11.29c-5.15-5.09-10.3-10.18-15.45-15.27"/>
		</g>
		<g>
			<path class="st5" d="M343.46,864.15c4.45-9.49,15.78-13.33,26.07-15.33c10.29-2,21.55-3.52,28.9-10.99
				c0.81-0.83,1.87-1.8,2.96-1.42c0.8,0.28,1.19,1.19,1.35,2.02c1.15,5.87-4.18,11.01-9.57,13.61c-5.39,2.6-11.61,4.16-15.49,8.71
				c-1.33,1.56-2.35,3.44-4,4.67c-1.98,1.47-4.57,1.76-7.03,1.93c-7.42,0.52-14.88,0.37-22.28-0.42"/>
		</g>
		<g>
			<path class="st5" d="M417.58,860.47c7.75,1.48,15.66-2.12,23.52-1.38c6.69,0.63,12.91,4.36,19.62,4.25
				c4.39-0.07,8.55-1.78,12.73-3.11c1.52-0.48,3.29-0.89,4.64-0.03c1.91,1.22,1.61,4.33-0.01,5.92s-3.99,2.07-6.22,2.47
				c-10.64,1.93-21.29,3.86-31.93,5.79c-5.51,1-11.2,1.99-16.65,0.72s-10.63-5.46-11.25-11.02"/>
		</g>
		<g>
			<path class="st5" d="M559.11,764.87c-3.86-5.03-12.42-5.04-16.68-0.34c-4.26,4.7-3.73,12.74,0.75,17.23
				c4.41,4.42,12.05,6.16,13.68,12.18c0.65,2.38,0.13,4.9,0.31,7.36c0.46,6.31,6.46,11.86,12.76,11.31s11.32-7.65,9.25-13.63
				c-1.09-3.17-3.69-5.54-5.95-8.02c-5.92-6.51-9.96-14.71-11.51-23.37"/>
		</g>
		<g>
			<path class="st5" d="M630.96,780.02c8.7-7.73,22.39-9.21,32.54-3.51c1.87,1.05,3.65,2.33,5.72,2.92
				c7.68,2.19,17.31-5.42,23.12,0.06c-6.91,6.48-17.26,7.2-26.73,7.57c-11.24,0.44-23.26,0.68-32.79-5.29"/>
		</g>
		<g>
			<path class="st5" d="M601.57,845.49c-3.92-2.98-6.05-8.15-5.37-13.03c0.68-4.88,4.15-9.26,8.73-11.06c2.55-1,5.44-1.27,7.61-2.94
				c1.39-1.07,2.38-2.64,3.92-3.49c1.73-0.96,3.86-0.81,5.79-0.41c5.93,1.25,11.34,4.85,14.78,9.84c0.97,1.41,1.81,3.01,1.8,4.71
				c-0.01,2.7-2.14,4.95-4.47,6.32c-9.82,5.82-23.72,1.07-32.89,7.87"/>
		</g>
		<g>
			<path class="st5" d="M591.67,766.4c-5.49-3.8-8.28-11.12-6.72-17.61c1.9-7.92,9.5-15.57,5.94-22.89
				c6.6,2.07,10.75,8.41,14.35,14.31c3.05,4.99,6.22,10.52,5.35,16.31c-0.87,5.78-8.13,10.6-12.71,6.96"/>
		</g>
		<g>
			<path class="st5" d="M528.29,736.87c-6.99-2.22-15.37,1.69-18.16,8.47c-2.98,7.22,0.09,15.38,3.14,22.57
				c0.68,1.62,1.48,3.35,3.04,4.16c0.99,0.51,2.15,0.56,3.26,0.51c4.76-0.24,9.79-2.71,11.41-7.19c2.96-8.17-6.56-17.09-3.44-25.19"
				/>
		</g>
		<g>
			<path class="st5" d="M521.66,800.53c-3.06,7.05-3.37,15.57,0.5,22.22c3.87,6.64,12.35,10.69,19.64,8.26
				c2.46-0.82,4.83-2.47,5.65-4.93c1.38-4.14-1.99-8.22-5.1-11.29c-5.15-5.09-10.3-10.18-15.45-15.27"/>
		</g>
		<g>
			<path class="st5" d="M513.46,863.15c4.45-9.49,15.78-13.33,26.07-15.33c10.29-2,21.55-3.52,28.9-10.99
				c0.81-0.83,1.87-1.8,2.96-1.42c0.8,0.28,1.19,1.19,1.35,2.02c1.15,5.87-4.18,11.01-9.57,13.61c-5.39,2.6-11.61,4.16-15.49,8.71
				c-1.33,1.56-2.35,3.44-4,4.67c-1.98,1.47-4.57,1.76-7.03,1.93c-7.42,0.52-14.88,0.37-22.28-0.42"/>
		</g>
		<g>
			<path class="st5" d="M587.58,859.47c7.75,1.48,15.66-2.12,23.52-1.38c6.69,0.63,12.91,4.36,19.62,4.25
				c4.39-0.07,8.55-1.78,12.73-3.11c1.52-0.48,3.29-0.89,4.64-0.03c1.91,1.22,1.61,4.33-0.01,5.92s-3.99,2.07-6.22,2.47
				c-10.64,1.93-21.29,3.86-31.93,5.79c-5.51,1-11.2,1.99-16.65,0.72c-5.45-1.28-10.63-5.46-11.25-11.02"/>
		</g>
		<g>
			<path class="st5" d="M719.11,770.87c-3.86-5.03-12.42-5.04-16.68-0.34c-4.26,4.7-3.73,12.74,0.75,17.23
				c4.41,4.42,12.05,6.16,13.68,12.18c0.65,2.38,0.13,4.9,0.31,7.36c0.46,6.31,6.46,11.86,12.76,11.31s11.32-7.65,9.25-13.63
				c-1.09-3.17-3.69-5.54-5.95-8.02c-5.92-6.51-9.96-14.71-11.51-23.37"/>
		</g>
		<g>
			<path class="st5" d="M773.96,793.02c8.7-7.73,22.39-9.21,32.54-3.51c1.87,1.05,3.65,2.33,5.72,2.92
				c7.68,2.19,17.31-5.42,23.12,0.06c-6.91,6.48-17.26,7.2-26.73,7.57c-11.24,0.44-23.26,0.68-32.79-5.29"/>
		</g>
		<g>
			<path class="st5" d="M761.57,851.49c-3.92-2.98-6.05-8.15-5.37-13.03c0.68-4.88,4.15-9.26,8.73-11.06c2.55-1,5.44-1.27,7.61-2.94
				c1.39-1.07,2.38-2.64,3.92-3.49c1.73-0.96,3.86-0.81,5.79-0.41c5.93,1.25,11.34,4.85,14.78,9.84c0.97,1.41,1.81,3.01,1.8,4.71
				c-0.01,2.7-2.14,4.95-4.47,6.32c-9.82,5.82-23.72,1.07-32.89,7.87"/>
		</g>
		<g>
			<path class="st5" d="M751.67,772.4c-5.49-3.8-8.28-11.12-6.72-17.61c1.9-7.92,9.5-15.57,5.94-22.89
				c6.6,2.07,10.75,8.41,14.35,14.31c3.05,4.99,6.22,10.52,5.35,16.31c-0.87,5.78-8.13,10.6-12.71,6.96"/>
		</g>
		<g>
			<path class="st5" d="M688.29,742.87c-6.99-2.22-15.37,1.69-18.16,8.47c-2.98,7.22,0.09,15.38,3.14,22.57
				c0.68,1.62,1.48,3.35,3.04,4.16c0.99,0.51,2.15,0.56,3.26,0.51c4.76-0.24,9.79-2.71,11.41-7.19c2.96-8.17-6.56-17.09-3.44-25.19"
				/>
		</g>
		<g>
			<path class="st5" d="M681.66,806.53c-3.06,7.05-3.37,15.57,0.5,22.22c3.87,6.64,12.35,10.69,19.64,8.26
				c2.46-0.82,4.83-2.47,5.65-4.93c1.38-4.14-1.99-8.22-5.1-11.29c-5.15-5.09-10.3-10.18-15.45-15.27"/>
		</g>
		<g>
			<path class="st5" d="M673.46,869.15c4.45-9.49,15.78-13.33,26.07-15.33c10.29-2,21.55-3.52,28.9-10.99
				c0.81-0.83,1.87-1.8,2.96-1.42c0.8,0.28,1.19,1.19,1.35,2.02c1.15,5.87-4.18,11.01-9.57,13.61c-5.39,2.6-11.61,4.16-15.49,8.71
				c-1.33,1.56-2.35,3.44-4,4.67c-1.98,1.47-4.57,1.76-7.03,1.93c-7.42,0.52-14.88,0.37-22.28-0.42"/>
		</g>
		<g>
			<path class="st5" d="M747.58,865.47c7.75,1.48,15.66-2.12,23.52-1.38c6.69,0.63,12.91,4.36,19.62,4.25
				c4.39-0.07,8.55-1.78,12.73-3.11c1.52-0.48,3.29-0.89,4.64-0.03c1.91,1.22,1.61,4.33-0.01,5.92s-3.99,2.07-6.22,2.47
				c-10.64,1.93-21.29,3.86-31.93,5.79c-5.51,1-11.2,1.99-16.65,0.72c-5.45-1.28-10.63-5.46-11.25-11.02"/>
		</g>
		<g>
			<path class="st5" d="M889.11,769.87c-3.86-5.03-12.42-5.04-16.68-0.34c-4.26,4.7-3.73,12.74,0.75,17.23
				c4.41,4.42,12.05,6.16,13.68,12.18c0.65,2.38,0.13,4.9,0.31,7.36c0.46,6.31,6.46,11.86,12.76,11.31s11.32-7.65,9.25-13.63
				c-1.09-3.17-3.69-5.54-5.95-8.02c-5.92-6.51-9.96-14.71-11.51-23.37"/>
		</g>
		<g>
			<path class="st5" d="M960.96,785.02c8.7-7.73,22.39-9.21,32.54-3.51c1.87,1.05,3.65,2.33,5.72,2.92
				c7.68,2.19,17.31-5.42,23.12,0.06c-6.91,6.48-17.26,7.2-26.73,7.57c-11.24,0.44-23.26,0.68-32.79-5.29"/>
		</g>
		<g>
			<path class="st5" d="M931.57,850.49c-3.92-2.98-6.05-8.15-5.37-13.03c0.68-4.88,4.15-9.26,8.73-11.06c2.55-1,5.44-1.27,7.61-2.94
				c1.39-1.07,2.38-2.64,3.92-3.49c1.73-0.96,3.86-0.81,5.79-0.41c5.93,1.25,11.34,4.85,14.78,9.84c0.97,1.41,1.81,3.01,1.8,4.71
				c-0.01,2.7-2.14,4.95-4.47,6.32c-9.82,5.82-23.72,1.07-32.89,7.87"/>
		</g>
		<g>
			<path class="st5" d="M858.29,741.87c-6.99-2.22-15.37,1.69-18.16,8.47c-2.98,7.22,0.09,15.38,3.14,22.57
				c0.68,1.62,1.48,3.35,3.04,4.16c0.99,0.51,2.15,0.56,3.26,0.51c4.76-0.24,9.79-2.71,11.41-7.19c2.96-8.17-6.56-17.09-3.44-25.19"
				/>
		</g>
		<g>
			<path class="st5" d="M851.66,805.53c-3.06,7.05-3.37,15.57,0.5,22.22c3.87,6.64,12.35,10.69,19.64,8.26
				c2.46-0.82,4.83-2.47,5.65-4.93c1.38-4.14-1.99-8.22-5.1-11.29c-5.15-5.09-10.3-10.18-15.45-15.27"/>
		</g>
		<g>
			<path class="st5" d="M843.46,868.15c4.45-9.49,15.78-13.33,26.07-15.33c10.29-2,21.55-3.52,28.9-10.99
				c0.81-0.83,1.87-1.8,2.96-1.42c0.8,0.28,1.19,1.19,1.35,2.02c1.15,5.87-4.18,11.01-9.57,13.61c-5.39,2.6-11.61,4.16-15.49,8.71
				c-1.33,1.56-2.35,3.44-4,4.67c-1.98,1.47-4.57,1.76-7.03,1.93c-7.42,0.52-14.88,0.37-22.28-0.42"/>
		</g>
		<g>
			<path class="st5" d="M917.58,864.47c7.75,1.48,15.66-2.12,23.52-1.38c6.69,0.63,12.91,4.36,19.62,4.25
				c4.39-0.07,8.55-1.78,12.73-3.11c1.52-0.48,3.29-0.89,4.64-0.03c1.91,1.22,1.61,4.33-0.01,5.92s-3.99,2.07-6.22,2.47
				c-10.64,1.93-21.29,3.86-31.93,5.79c-5.51,1-11.2,1.99-16.65,0.72c-5.45-1.28-10.63-5.46-11.25-11.02"/>
		</g>
		<g>
			<path class="st5" d="M1035.96,782.02c8.7-7.73,22.39-9.21,32.54-3.51c1.87,1.05,3.65,2.33,5.72,2.92
				c7.68,2.19,17.31-5.42,23.12,0.06c-6.91,6.48-17.26,7.2-26.73,7.57c-11.24,0.44-23.26,0.68-32.79-5.29"/>
		</g>
		<g>
			<path class="st5" d="M1023.57,840.49c-3.92-2.98-6.05-8.15-5.37-13.03c0.68-4.88,4.15-9.26,8.73-11.06
				c2.55-1,5.44-1.27,7.61-2.94c1.39-1.07,2.38-2.64,3.92-3.49c1.73-0.96,3.86-0.81,5.79-0.41c5.93,1.25,11.34,4.85,14.78,9.84
				c0.97,1.41,1.81,3.01,1.8,4.71c-0.01,2.7-2.14,4.95-4.47,6.32c-9.82,5.82-23.72,1.07-32.89,7.87"/>
		</g>
		<g>
			<path class="st5" d="M1013.67,761.4c-5.49-3.8-8.28-11.12-6.72-17.61c1.9-7.92,9.5-15.57,5.94-22.89
				c6.6,2.07,10.75,8.41,14.35,14.31c3.05,4.99,6.22,10.52,5.35,16.31c-0.87,5.78-8.13,10.6-12.71,6.96"/>
		</g>
		<g>
			<path class="st5" d="M935.46,858.15c4.45-9.49,15.78-13.33,26.07-15.33c10.29-2,21.55-3.52,28.9-10.99
				c0.81-0.83,1.87-1.8,2.96-1.42c0.8,0.28,1.19,1.19,1.35,2.02c1.15,5.87-4.18,11.01-9.57,13.61c-5.39,2.6-11.61,4.16-15.49,8.71
				c-1.33,1.56-2.35,3.44-4,4.67c-1.98,1.47-4.57,1.76-7.03,1.93c-7.42,0.52-14.88,0.37-22.28-0.42"/>
		</g>
		<g>
			<path class="st5" d="M1009.58,854.47c7.75,1.48,15.66-2.12,23.52-1.38c6.69,0.63,12.91,4.36,19.62,4.25
				c4.39-0.07,8.55-1.78,12.73-3.11c1.52-0.48,3.29-0.89,4.64-0.03c1.91,1.22,1.61,4.33-0.01,5.92s-3.99,2.07-6.22,2.47
				c-10.64,1.93-21.29,3.86-31.93,5.79c-5.51,1-11.2,1.99-16.65,0.72c-5.45-1.28-10.63-5.46-11.25-11.02"/>
		</g>
		<g>
			<path class="st5" d="M1151.11,758.87c-3.86-5.03-12.42-5.04-16.68-0.34s-3.73,12.74,0.75,17.23c4.41,4.42,12.05,6.16,13.68,12.18
				c0.65,2.38,0.13,4.9,0.31,7.36c0.46,6.31,6.46,11.86,12.76,11.31s11.32-7.65,9.25-13.63c-1.09-3.17-3.69-5.54-5.95-8.02
				c-5.92-6.51-9.96-14.71-11.51-23.37"/>
		</g>
		<g>
			<path class="st5" d="M1219.96,774.02c8.7-7.73,22.39-9.21,32.54-3.51c1.87,1.05,3.65,2.33,5.72,2.92
				c7.68,2.19,17.31-5.42,23.12,0.06c-6.91,6.48-17.26,7.2-26.73,7.57c-11.24,0.44-23.26,0.68-32.79-5.29"/>
		</g>
		<g>
			<path class="st5" d="M1193.57,839.49c-3.92-2.98-6.05-8.15-5.37-13.03c0.68-4.88,4.15-9.26,8.73-11.06
				c2.55-1,5.44-1.27,7.61-2.94c1.39-1.07,2.38-2.64,3.92-3.49c1.73-0.96,3.86-0.81,5.79-0.41c5.93,1.25,11.34,4.85,14.78,9.84
				c0.97,1.41,1.81,3.01,1.8,4.71c-0.01,2.7-2.14,4.95-4.47,6.32c-9.82,5.82-23.72,1.07-32.89,7.87"/>
		</g>
		<g>
			<path class="st5" d="M1183.67,760.4c-5.49-3.8-8.28-11.12-6.72-17.61c1.9-7.92,9.5-15.57,5.94-22.89
				c6.6,2.07,10.75,8.41,14.35,14.31c3.05,4.99,6.22,10.52,5.35,16.31c-0.87,5.78-8.13,10.6-12.71,6.96"/>
		</g>
		<g>
			<path class="st5" d="M1120.29,730.87c-6.99-2.22-15.37,1.69-18.16,8.47c-2.98,7.22,0.09,15.38,3.14,22.57
				c0.68,1.62,1.48,3.35,3.04,4.16c0.99,0.51,2.15,0.56,3.26,0.51c4.76-0.24,9.79-2.71,11.41-7.19c2.96-8.17-6.56-17.09-3.44-25.19"
				/>
		</g>
		<g>
			<path class="st5" d="M1113.66,794.53c-3.06,7.05-3.37,15.57,0.5,22.22c3.87,6.64,12.35,10.69,19.64,8.26
				c2.46-0.82,4.83-2.47,5.65-4.93c1.38-4.14-1.99-8.22-5.1-11.29c-5.15-5.09-10.3-10.18-15.45-15.27"/>
		</g>
		<g>
			<path class="st5" d="M1105.46,857.15c4.45-9.49,15.78-13.33,26.07-15.33c10.29-2,21.55-3.52,28.9-10.99
				c0.81-0.83,1.87-1.8,2.96-1.42c0.8,0.28,1.19,1.19,1.35,2.02c1.15,5.87-4.18,11.01-9.57,13.61c-5.39,2.6-11.61,4.16-15.49,8.71
				c-1.33,1.56-2.35,3.44-4,4.67c-1.98,1.47-4.57,1.76-7.03,1.93c-7.42,0.52-14.88,0.37-22.28-0.42"/>
		</g>
		<g>
			<path class="st5" d="M1179.58,853.47c7.75,1.48,15.66-2.12,23.52-1.38c6.69,0.63,12.91,4.36,19.62,4.25
				c4.39-0.07,8.55-1.78,12.73-3.11c1.52-0.48,3.29-0.89,4.64-0.03c1.91,1.22,1.61,4.33-0.01,5.92s-3.99,2.07-6.22,2.47
				c-10.64,1.93-21.29,3.86-31.93,5.79c-5.51,1-11.2,1.99-16.65,0.72s-10.63-5.46-11.25-11.02"/>
		</g>
	</g>
	<path class="st6" d="M563.07,627.96h3.94v-1.4c-0.93,0-2.24-0.42-3.94-1.27V627.96z"/>
</g>
<g id="Capa_2">
	<path class="st7" d="M108.3,604.03c0,0-27.54-23.5-47.8-1.42s-20,80.01-20,80.01s5.71,17.92,28.05-18.96l22.86-30.13l19.79-28.57
		L108.3,604.03z"/>
	<path class="st7" d="M329.65,605.99l-26.31,6.65c0,0-16.05,41.92,23.17,31.53s60.53-45.2,58.71-48.06
		c-1.82-2.86,3.12-15.33-43.64,3.38L329.65,605.99z"/>
	<path class="st8" d="M279.95,480.16c0,0,70.96,18.87,70.55,44.3c-0.41,25.43-21.33,82.85-21.33,82.85l-25.84,5.33
		c0,0,4.92-2.05,0.82-22.15c-4.1-20.1-5.74-8.61-6.56-31.99c-0.82-23.38,4.92-21.74,1.23-20.1c-3.69,1.64-34.45,16-49.63,7.79
		C234.02,537.99,279.95,480.16,279.95,480.16z"/>
	<path class="st8" d="M211.87,457.19c-2.31-5.01-17.64,13.13-30.76,62.75s-10.66,59.88-13.54,61.93
		c-2.87,2.05-9.02,10.66-17.64,11.07s-39.38,9.84-40.2,11.07l-23.38,34.04c0,0,49.22-15.18,77.93-4.92
		c28.71,10.25,47.99-22.97,47.99-22.97s73.83-130.84,72.19-142.32C284.47,467.86,214.33,462.52,211.87,457.19z"/>
	<path class="st9" d="M247.96,311.18c-0.41,1.64-15.59,43.89-15.59,43.89s-31.58,11.48-46.35,20.92s-32.4,77.52-32.4,77.52
		s16.82,43.89-17.23,40.2c-34.04-3.69-16-33.22-16-33.22s30.35-102.13,31.17-108.28c0.82-6.15,0.41-19.28,39.79-28.3
		S247.96,311.18,247.96,311.18z"/>
	<path class="st8" d="M253.7,302.56C308.25,296,314,291.49,314,291.49s47.17,29.53-29.94,175.55l-67.27,2.46l-6.15-15.59
		c0,0,22.56-115.25,29.53-128.79c6.97-13.54,9.84-24.2,9.84-24.2L253.7,302.56z"/>
	<path class="st9" d="M335.74,403.05c0,0,59.47-21.33,66.86-20.92c0,0,18.05-32.81,28.71-30.35c10.66,2.46-2.46,11.48-2.46,11.48
		s15.18-14.77,18.46-11.89c3.28,2.87,5.33,8.2,0.41,11.89c0,0,8.2,6.15,0,11.48c0,0,7.79,8.2-1.23,11.07c0,0-16.82,9.43-35.27,15.59
		c0,0-31.99,16-41.84,20.92c-9.84,4.92-35.27,16.41-47.58,11.07c0,0-9.84,3.69-25.43-32.4s-21.74-98.44,9.43-95.98
		C336.97,307.49,335.74,403.05,335.74,403.05z"/>
	<path class="st9" d="M272.43,266.2c0,2.87-17.91,36.37-17.91,36.37l45.12-4.51l11.07-4.1c0,0-5.74-8.61,3.69-19.69
		s-20.51-27.07-20.51-27.07L272.43,266.2z"/>
	<path class="st9" d="M291.92,273.49c-11.62-0.66-22.83-4.38-28.74-14.4c-8.4-14.25-16.53-38.12-9.07-72.19
		c13.13-59.88,67.27-54.96,67.27-54.96s41.84-8.2,47.99,23.79c6.15,31.99,6.44,100.19-13.54,111.56
		c-19.69,11.21-45.05,7.25-45.05,7.25L291.92,273.49z"/>
	<path class="st9" d="M303.54,165.78c0,0-8.41-53.12-13.13-56.19c-4.72-3.08,40.4-8.41,50.24,58.04"/>
	<path class="st10" d="M308.67,129.27c-5.37,4.3,12.92,31.17,14.97,30.56C325.69,159.21,312.77,125.99,308.67,129.27z"/>
	<path class="st9" d="M348.66,132.76c0,0-4.92-42.86-19.89-46.76c0,0,5.13,4.72-1.03,43.68"/>
	<g>
		<path class="st10" d="M225.32,317.12c1.32,1.65,6.14,8.29,7.46,9.94c0.48,0.6,0.97,1.22,1.23,1.94c0.79,2.14-0.68,4.61-2.72,5.64
			c-2.04,1.03-4.46,0.94-6.72,0.65c-2.27-0.29-4.56-0.77-6.82-0.46c-2.84,0.4-5.43,2.03-8.29,2.23c-2.99,0.21-5.82-1.14-8.6-2.25
			c-6.06-2.42-12.54-3.8-19.06-4.06C197.14,325.16,210.44,319.89,225.32,317.12"/>
	</g>
	<g>
		<path class="st10" d="M156,369.37c-1.91,0.84-4.17,0.72-5.98,1.76c-1.86,1.07-2.86,3.16-3.75,5.11c-0.82,1.81-1.64,3.62-2.46,5.43
			c-1.25,2.76-2.53,5.62-2.59,8.65c-0.01,0.36,0.02,0.75,0.26,1.02c0.4,0.43,1.1,0.28,1.66,0.07c2.31-0.84,4.57-1.83,6.76-2.95
			c0.74-0.38,1.48-0.78,2.08-1.35c1.4-1.32,1.87-3.31,2.51-5.13c1.11-3.16,2.89-6.04,4.6-8.92c0.35-0.58,0.7-1.2,0.75-1.87
			c0.05-0.68-0.28-1.44-0.93-1.64"/>
	</g>
	<g>
		<path class="st10" d="M317.2,363.32c-0.03-4,1.62-7.87,3.94-11.14c2.32-3.26,5.3-5.99,8.25-8.7c2.42,5.82,0.24,12.4-0.19,18.69
			c-0.24,3.45,0.06,6.92-0.3,10.36c-0.41,3.83-1.65,7.56-3.62,10.87c-4.07-4.85-6.88-10.75-8.09-16.97"/>
	</g>
	<g>
		<path class="st10" d="M285.41,354.23c-0.99-1.95-0.64-4.31,0.09-6.37c0.73-2.06,1.82-3.99,2.3-6.12c0.46-2.05,0.34-4.18,0.73-6.24
			c0.51-2.75,1.93-5.32,3.99-7.2c0.15-0.14,0.32-0.28,0.52-0.26c0.21,0.02,0.36,0.19,0.48,0.36c1.79,2.44,2.04,5.69,1.67,8.69
			s-1.3,5.91-1.62,8.92c-0.15,1.43-0.21,2.98-1.1,4.11c-0.63,0.81-1.61,1.28-2.27,2.07c-0.51,0.61-0.79,1.38-1.27,2.01
			s-1.26,1.16-2.02,0.95"/>
	</g>
	<path d="M268,506.85c0,0-1.08-2.21-12.06-15.39c-10.98-13.18-15.38-22.83-15.38-22.83l43.93-1.33l-4.83,15.15L268,506.85z"/>
	<polygon points="109.74,604.03 150.52,629.5 139.07,629.5 107.13,608.09 	"/>
	<path d="M333.99,593.35l-34.35-26.49c-0.59-0.5-1.48,0.03-1.31,0.79l1.07,6.62c0.04,0.18,0.77,1.36,0.9,1.47l28.93,27.58
		c0.46,0.38,1.43-0.06,1.58-0.64l0.95-3.84C332.94,598.45,334.23,593.55,333.99,593.35z"/>
	<ellipse cx="351.97" cy="189.59" rx="10.29" ry="22.06"/>
	<circle class="st11" cx="343.89" cy="180.03" r="5.15"/>
	<path class="st12" d="M327.87,214.76c8.95,13.9,24.37,21.98,40.68,22.58"/>
	<polygon points="341.29,228.4 340.55,245.32 356.34,235.5 	"/>
	<g>
		<path class="st10" d="M275.83,244.35c-1.5,1.6-4.01,1.48-6.18,1.73c-2.18,0.25-4.76,1.69-4.44,3.86c0.21,1.45,1.66,2.36,3.03,2.87
			s2.89,0.83,3.91,1.89c1.06,1.1,1.31,2.72,1.87,4.15c1.07,2.72,3.34,4.76,5.59,6.62c3.32,2.75,6.77,5.34,10.33,7.77
			c0.24,0.17,0.54,0.34,0.82,0.23c0.21-0.08,0.33-0.29,0.42-0.5c0.58-1.32,0.6-2.87,0.05-4.2c-0.43-1.05-1.22-2.1-0.93-3.19
			c0.19-0.73,0.84-1.29,0.96-2.03c0.11-0.67-0.22-1.32-0.56-1.9c-1.93-3.35-4.35-6.41-7.16-9.06c-2.51-2.37-5.45-4.6-6.54-7.87"/>
	</g>
	<g>
		<path class="st10" d="M283.68,157.13c0.45-1.04-0.95-2-2.08-1.92c-1.13,0.08-2.24,0.66-3.35,0.45c-0.83-0.16-1.57-0.74-2.42-0.72
			c-1.19,0.03-2.03,1.26-2.22,2.43c-0.2,1.18,0.02,2.39-0.15,3.57c-0.58,4.04-5.31,6.31-6.43,10.24c-1.07,3.77,1.43,8.3-0.8,11.53
			c2.75-0.63,5.3-2.08,7.25-4.12c5.41-5.63,5.66-14.74,10.85-20.57"/>
	</g>
	<g>
		<path class="st10" d="M303.28,191.48c-1.97-0.51-3.17-2.68-3.11-4.71c0.07-2.03,1.15-3.9,2.45-5.46c0.39-0.47,0.83-0.94,1.4-1.15
			c1.13-0.43,2.38,0.27,3.28,1.07c2.05,1.84,3.39,4.46,3.67,7.2c0.1,0.95,0.08,1.91,0.27,2.84c0.44,2.1,1.93,3.82,2.78,5.79
			c1.07,2.47,1.12,5.25,1.16,7.94c0,0.2,0,0.43-0.13,0.59c-0.27,0.32-0.8,0.1-1.15-0.14c-2.17-1.49-4.34-2.99-6.52-4.48
			c-0.68-0.47-1.36-0.94-1.93-1.54c-1.59-1.68-2.06-4.11-2.45-6.39"/>
	</g>
	<g>
	</g>
	<g>
	</g>
	<g>
	</g>
	<g>
	</g>
	<g>
	</g>
	<g>
	</g>
	<g>
	</g>
	<g>
	</g>
	<g>
	</g>
	<g>
	</g>
	<g>
	</g>
	<g>
	</g>
	<g>
	</g>
	<g>
	</g>
	<g>
	</g>
</g>
</svg>
